<?xml version="1.0" standalone="no"?>
<!DOCTYPE svg PUBLIC "-//W3C//DTD SVG 20010904//EN"
 "http://www.w3.org/TR/2001/REC-SVG-20010904/DTD/svg10.dtd">
<svg version="1.0" xmlns="http://www.w3.org/2000/svg"
 width="256.000000pt" height="256.000000pt" viewBox="0 0 256.000000 256.000000"
 preserveAspectRatio="xMidYMid meet">
<metadata>
Created by potrace 1.14, written by Peter Selinger 2001-2017
</metadata>
<g transform="translate(0.000000,256.000000) scale(0.100000,-0.100000)"
fill="#000000" stroke="none">
<path d="M1088 2311 c-15 -3 -36 -13 -45 -21 -10 -9 -21 -15 -25 -15 -3 0 -18
-10 -32 -22 -15 -13 -32 -23 -39 -23 -8 0 -17 -3 -21 -7 -4 -4 -19 -8 -34 -9
-15 -1 -28 -3 -29 -4 -2 -1 -7 -3 -11 -4 -5 0 -44 -33 -86 -73 -93 -86 -111
-124 -91 -191 14 -45 11 -87 -7 -109 -5 -7 -11 -34 -13 -60 -2 -26 -8 -60 -13
-74 -8 -19 -7 -30 1 -39 9 -10 9 -11 0 -6 -9 5 -13 0 -13 -13 0 -12 3 -20 8
-19 18 5 72 -15 72 -27 0 -7 6 -18 14 -24 20 -17 42 -101 28 -110 -43 -26 -80
-64 -77 -79 2 -9 4 -20 4 -24 1 -4 7 -13 14 -20 6 -7 25 -29 41 -48 16 -19 47
-47 70 -62 22 -16 37 -28 31 -28 -5 0 -4 -4 2 -8 7 -4 14 -17 16 -29 5 -37
138 -292 166 -320 24 -25 117 -87 131 -88 30 -3 61 -19 74 -40 9 -14 12 -25 6
-25 -5 0 -10 -13 -10 -30 0 -25 -4 -30 -24 -30 -35 0 -56 -10 -56 -27 0 -47
54 -239 67 -237 4 1 19 5 32 9 23 7 23 7 19 -64 -5 -71 5 -96 16 -43 4 15 17
41 31 57 l23 30 -3 -65 c-2 -46 -1 -57 5 -37 5 15 10 49 11 75 2 26 11 72 21
103 18 52 22 58 57 67 35 8 42 7 85 -27 25 -19 46 -42 46 -49 0 -8 -7 -39 -16
-69 -9 -30 -13 -57 -10 -60 3 -4 1 -12 -6 -20 -6 -7 -8 -16 -5 -19 3 -3 17 16
30 43 14 26 34 59 44 72 l19 24 -3 -29 c-1 -16 -5 -49 -9 -73 -5 -32 -4 -42 4
-37 7 4 12 13 12 19 -1 29 65 327 72 327 4 0 8 -11 8 -25 0 -41 20 -71 64 -96
22 -13 44 -23 48 -21 4 1 5 -24 3 -56 l-4 -57 19 37 c12 22 50 59 93 91 39 29
78 61 85 69 9 12 12 60 10 189 -2 130 -5 163 -12 132 -4 -23 -15 -44 -23 -47
-8 -3 -23 -27 -35 -53 -20 -45 -40 -73 -52 -73 -3 0 -12 12 -20 27 -15 30 -14
62 3 106 14 37 14 36 -9 32 -11 -2 -32 -15 -47 -29 -15 -14 -30 -26 -33 -26
-3 0 -12 -16 -19 -35 -7 -19 -17 -35 -22 -35 -5 0 -9 -5 -9 -11 0 -6 -7 -17
-15 -25 -8 -9 -15 -11 -15 -4 0 30 78 309 91 326 5 6 6 14 2 17 -3 4 -1 7 6 7
7 0 9 5 6 10 -3 5 -4 10 -2 10 2 0 21 -28 43 -62 51 -83 55 -87 80 -77 12 4
25 5 28 2 3 -4 6 -1 6 6 0 7 4 10 10 6 14 -9 33 72 33 143 0 58 2 63 21 60 16
-2 20 2 18 17 -10 62 -12 60 58 59 40 -1 57 2 45 7 -52 20 -62 22 -90 24 -16
1 -34 -1 -39 -3 -28 -15 -140 -16 -144 -1 -3 6 -9 6 -18 -2 -11 -9 -13 -9 -9
2 3 8 19 22 35 31 21 12 30 25 30 43 0 14 0 27 0 30 1 3 8 24 16 47 13 37 24
97 27 146 0 6 5 12 10 12 5 0 7 7 4 15 -4 8 -2 17 3 20 12 7 13 25 2 25 -11 0
-33 -64 -37 -108 -3 -40 -14 -91 -24 -107 -5 -10 -8 -21 -15 -60 -8 -47 -22
-58 -56 -45 -3 1 -8 2 -12 1 -8 -1 -5 20 6 37 6 10 11 10 21 2 11 -9 13 -5 12
24 -1 20 -6 36 -10 36 -5 0 -6 4 -2 10 3 5 13 6 21 3 13 -5 15 -1 10 14 -4 13
-1 27 9 36 8 9 16 33 17 54 2 21 7 41 11 44 10 8 26 75 27 111 0 15 -10 36
-22 48 -17 16 -19 23 -10 32 9 9 12 9 12 -1 0 -7 4 -10 9 -7 13 9 34 -50 29
-82 -2 -17 1 -29 7 -29 12 0 13 69 2 103 -4 12 -19 26 -33 33 -20 9 -24 16
-21 40 4 21 -4 45 -27 83 -30 51 -53 104 -61 140 -4 19 -23 56 -37 72 -4 6
-16 20 -26 32 -31 37 -72 58 -112 56 -29 -2 -42 3 -57 20 -10 13 -27 30 -37
38 -18 13 -19 13 -11 0 7 -12 6 -13 -6 -3 -9 7 -26 10 -40 7 -39 -8 -129 -12
-124 -4 2 3 -35 21 -83 39 -86 31 -161 43 -214 32z m-86 -93 c-5 -7 -12 -24
-14 -38 -1 -14 -6 -23 -9 -20 -4 3 -16 -3 -26 -13 -23 -20 -98 -26 -116 -8
-19 20 27 51 75 51 23 0 37 4 33 10 -3 5 0 7 7 5 8 -3 22 1 33 9 25 19 31 20
17 4z m437 -14 c10 -3 10 -8 2 -18 -6 -7 -8 -15 -5 -18 3 -3 -8 -10 -23 -15
-27 -10 -28 -9 -28 27 0 38 3 40 54 24z m-679 -192 c0 -57 -15 -71 -33 -35
-12 23 -13 33 -4 42 6 6 8 11 4 11 -4 0 -2 6 5 14 19 20 28 10 28 -32z m-12
-244 c-5 -23 -10 -72 -10 -108 l-1 -66 -24 23 c-12 13 -23 33 -23 43 0 33 51
150 65 150 2 0 -1 -19 -7 -42z m-84 -94 c3 -8 2 -12 -4 -9 -6 3 -10 10 -10 16
0 14 7 11 14 -7z m1266 -486 c43 -26 27 -34 -28 -15 -29 10 -42 11 -45 3 -2
-6 -8 -8 -12 -4 -14 13 4 38 27 38 13 0 39 -10 58 -22z m-253 -359 c2 -21 -41
-129 -52 -129 -3 0 -3 24 -1 53 4 67 49 130 53 76z m-324 -189 c13 -11 -3 -37
-21 -35 -37 4 -70 25 -75 47 -13 47 -8 50 41 22 26 -15 51 -30 55 -34z m131
-30 c-8 -8 -20 -7 -40 0 l-29 12 25 13 c21 12 27 12 40 -1 10 -9 11 -17 4 -24z
m496 -44 c0 -7 -141 -109 -144 -105 -2 2 7 26 19 54 18 38 31 52 57 61 28 10
68 4 68 -10z"/>
</g>
</svg>
